<?xml version="1.0" standalone="no"?>
<!DOCTYPE svg PUBLIC "-//W3C//DTD SVG 20010904//EN"
 "http://www.w3.org/TR/2001/REC-SVG-20010904/DTD/svg10.dtd">
<svg version="1.0" xmlns="http://www.w3.org/2000/svg"
 width="920.000000pt" height="485.000000pt" viewBox="0 0 920.000000 485.000000"
 preserveAspectRatio="xMidYMid meet">

<g transform="translate(0.000000,485.000000) scale(0.100000,-0.100000)"
fill="#000000" stroke="none">
<path d="M4120 4834 c-392 -50 -672 -262 -815 -616 -70 -174 -94 -313 -76
-440 57 -401 226 -658 476 -723 76 -19 224 -19 300 0 57 15 63 15 155 -9 179
-47 268 -60 420 -60 147 0 233 14 302 50 71 36 132 115 147 188 5 20 18 36 41
48 19 11 47 33 62 50 54 62 48 128 -18 195 -48 47 -51 61 -38 171 l7 52 159 0
160 0 -51 58 c-27 31 -76 86 -108 121 l-58 63 -188 21 c-103 11 -187 23 -187
27 0 3 66 21 148 39 81 18 154 34 164 37 15 4 15 10 2 67 -41 174 -125 327
-250 451 -114 114 -210 171 -323 192 -77 14 -366 26 -431 18z m560 -1098 c0
-2 -16 -14 -35 -26 -38 -24 -48 -60 -16 -60 10 0 24 7 32 16 50 60 136 56 190
-10 10 -12 22 -17 32 -13 25 10 20 32 -13 60 -16 14 -30 28 -30 31 0 3 34 6
76 6 l77 0 -7 -119 c-7 -118 -7 -120 16 -132 36 -18 78 -61 78 -79 0 -27 -42
-58 -86 -66 l-42 -6 -4 -58 c-7 -93 -61 -154 -165 -187 -65 -20 -251 -28 -343
-14 -98 15 -274 51 -288 60 -7 4 -2 29 13 76 34 100 45 177 52 363 l6 162 229
0 c125 0 228 -2 228 -4z"/>
<path d="M4721 3566 c-49 -52 -32 -178 25 -192 43 -11 74 4 91 44 32 76 -6
172 -67 172 -15 0 -36 -10 -49 -24z"/>
<path d="M5590 3109 c-72 -91 -144 -216 -171 -296 -11 -35 -19 -66 -16 -69 2
-2 44 14 92 36 48 22 90 38 93 35 18 -18 -21 -112 -93 -228 -103 -164 -109
-165 -174 -19 l-47 102 40 82 c31 64 40 96 44 152 7 114 -23 122 -122 35 -65
-58 -90 -118 -91 -219 l0 -85 50 -10 50 -11 12 -70 c6 -38 12 -75 12 -81 1 -9
-20 -13 -70 -13 -85 0 -158 27 -356 130 -179 94 -254 144 -368 251 -53 49
-115 99 -137 110 -64 33 -158 60 -229 66 -93 8 -147 -17 -179 -83 -21 -43 -24
-67 -31 -263 -4 -119 -8 -305 -8 -414 l-1 -198 228 7 c125 4 247 10 272 13
l45 6 13 170 c8 94 16 172 18 174 2 2 86 -50 186 -117 l183 -121 139 -9 c132
-8 140 -10 155 -33 32 -48 84 -99 139 -136 72 -47 88 -66 107 -127 30 -100 10
-276 -43 -382 -17 -33 -69 -126 -117 -209 -49 -82 -106 -180 -127 -217 -22
-37 -44 -70 -48 -73 -16 -10 -23 66 -18 194 6 121 8 133 63 296 50 146 58 181
59 245 0 81 -9 106 -57 158 -85 89 -325 122 -897 122 l-337 0 -33 -194 -33
-194 -30 -6 c-62 -12 -60 -14 -53 82 l6 89 -196 6 c-109 4 -363 7 -565 7
l-367 0 -7 -65 c-12 -113 14 -216 71 -283 l35 -41 -133 -210 -133 -209 -89
-33 -88 -32 5 -45 c7 -62 40 -93 106 -100 62 -6 101 9 139 53 l28 32 18 -111
c34 -220 115 -406 230 -532 132 -145 303 -213 544 -216 301 -3 502 110 627
353 l46 89 677 0 678 0 51 97 c79 149 78 149 93 78 55 -268 241 -489 481 -569
111 -37 207 -49 349 -44 100 4 141 11 205 32 158 53 278 161 355 321 79 163
109 377 75 531 -86 388 -345 577 -770 561 -157 -5 -235 -27 -331 -93 -36 -25
-68 -43 -71 -40 -3 3 7 31 22 62 33 67 107 127 212 169 56 23 87 29 178 32
129 6 209 -10 326 -62 127 -58 199 -44 199 37 0 61 -61 99 -204 129 -160 34
-476 36 -582 4 -19 -6 -31 13 -120 188 -54 108 -96 199 -92 202 4 4 44 11 90
17 46 5 85 12 87 14 2 2 4 31 4 64 -2 149 -114 259 -275 270 l-77 5 57 120 57
120 -5 242 -5 241 -55 -69z m-2099 -1798 c170 -65 300 -200 360 -371 33 -95
33 -257 0 -358 -101 -307 -435 -479 -736 -377 -198 66 -340 220 -391 425 -22
87 -14 231 16 319 29 81 108 199 168 251 58 49 161 105 233 125 81 23 276 15
350 -14z m2883 14 c75 -20 178 -74 238 -125 61 -52 139 -171 167 -251 31 -89
39 -234 17 -319 -52 -205 -192 -358 -391 -426 -195 -66 -429 -13 -578 130
-222 213 -247 541 -60 788 66 87 197 173 306 203 70 19 229 19 301 0z"/>
<path d="M3215 931 c-73 -34 -115 -102 -115 -186 0 -58 19 -102 61 -142 42
-40 77 -53 139 -53 60 0 96 13 133 48 66 62 85 157 48 237 -46 100 -165 143
-266 96z"/>
<path d="M6152 929 c-93 -46 -136 -162 -97 -257 77 -183 350 -155 385 40 30
161 -141 290 -288 217z"/>
<path d="M2466 2928 c2 -18 18 -251 34 -518 17 -267 33 -500 36 -517 l5 -33
629 0 630 0 0 38 c0 20 9 260 20 532 11 272 20 503 20 513 0 16 -39 17 -689
17 l-690 0 5 -32z m329 -98 c21 -34 145 -69 315 -90 73 -9 102 -18 127 -36 43
-33 60 -88 45 -152 -9 -38 -8 -50 4 -62 22 -23 46 -1 60 55 26 102 76 129 137
76 19 -17 40 -31 46 -31 8 0 7 -7 -3 -22 -8 -13 -16 -61 -19 -111 -6 -115 -34
-172 -97 -204 -52 -27 -99 -29 -223 -8 -120 19 -153 9 -187 -60 -14 -27 -26
-52 -28 -54 -4 -7 -62 52 -62 62 0 6 12 26 27 45 26 34 17 36 -20 4 -22 -20
-26 -15 -33 42 -5 36 -3 50 7 57 9 6 10 9 2 9 -9 0 -9 11 2 46 20 66 28 71 67
41 53 -40 94 -57 135 -57 51 0 71 13 54 34 -13 16 -51 28 -124 41 -37 6 -77
35 -77 55 0 7 22 9 63 6 l62 -5 -55 10 c-70 12 -138 46 -164 81 -25 36 -18 42
28 23 20 -8 64 -17 99 -20 l62 -4 -55 9 c-142 23 -220 95 -220 203 0 27 13 36
25 17z"/>
<path d="M3435 2589 c-10 -15 3 -25 16 -12 7 7 7 13 1 17 -6 3 -14 1 -17 -5z"/>
</g>
</svg>
