<?xml version="1.0" standalone="no"?>
<!DOCTYPE svg PUBLIC "-//W3C//DTD SVG 20010904//EN"
 "http://www.w3.org/TR/2001/REC-SVG-20010904/DTD/svg10.dtd">
<svg version="1.0" xmlns="http://www.w3.org/2000/svg"
 width="626.000000pt" height="432.000000pt" viewBox="0 0 626.000000 432.000000"
 preserveAspectRatio="xMidYMid meet">

<g transform="translate(0.000000,432.000000) scale(0.100000,-0.100000)"
fill="#000000" stroke="none">
<path d="M2608 3573 c28 -2 76 -2 105 0 28 2 5 3 -53 3 -58 0 -81 -1 -52 -3z"/>
<path d="M1791 3540 c-46 -11 -83 -40 -103 -81 -17 -32 -18 -93 -16 -914 l3
-880 2 808 3 807 465 0 c303 0 465 3 465 10 0 7 -162 10 -466 10 l-467 0 5 70
c6 78 23 111 71 140 27 17 51 20 155 20 68 0 121 4 118 9 -7 11 -190 12 -235
1z"/>
<path d="M2105 3540 c-11 -5 153 -9 376 -9 395 -1 396 -1 430 -24 46 -31 69
-80 69 -149 l0 -58 -150 0 c-93 0 -150 -4 -150 -10 0 -6 57 -10 150 -10 l149
0 4 -82 c2 -46 3 -8 3 84 -1 186 -6 201 -77 243 -32 19 -54 20 -409 22 -206 0
-384 -3 -395 -7z"/>
<path d="M2126 3432 c-2 -4 -4 -17 -2 -28 3 -18 13 -19 207 -19 l204 0 0 25 0
25 -202 3 c-111 1 -204 -1 -207 -6z m394 -22 c0 -19 -7 -20 -190 -20 -183 0
-190 1 -190 20 0 19 7 20 190 20 183 0 190 -1 190 -20z"/>
<path d="M4067 3340 c3 -11 7 -20 9 -20 2 0 4 9 4 20 0 11 -4 20 -9 20 -5 0
-7 -9 -4 -20z"/>
<path d="M3900 3346 c0 -4 7 -14 15 -22 8 -9 15 -11 15 -6 0 5 -7 15 -15 22
-8 7 -15 9 -15 6z"/>
<path d="M4097 3253 c-12 -12 -7 -19 15 -20 13 -1 18 1 13 5 -6 4 -13 11 -16
15 -3 4 -9 4 -12 0z"/>
<path d="M4161 3246 c2 -2 26 -6 53 -9 30 -3 43 -1 35 4 -13 8 -97 13 -88 5z"/>
<path d="M4258 3183 c7 -3 16 -2 19 1 4 3 -2 6 -13 5 -11 0 -14 -3 -6 -6z"/>
<path d="M4118 3173 c7 -3 16 -2 19 1 4 3 -2 6 -13 5 -11 0 -14 -3 -6 -6z"/>
<path d="M4158 3168 c4 -4 21 -3 37 1 30 9 30 9 -7 8 -20 -1 -34 -5 -30 -9z"/>
<path d="M4230 3170 c0 -5 5 -10 11 -10 5 0 7 5 4 10 -3 6 -8 10 -11 10 -2 0
-4 -4 -4 -10z"/>
<path d="M1634 2995 c0 -71 1 -99 3 -62 2 37 2 96 0 130 -2 34 -3 4 -3 -68z"/>
<path d="M2983 3025 c0 -22 2 -30 4 -17 2 12 2 30 0 40 -3 9 -5 -1 -4 -23z"/>
<path d="M1890 2985 c-14 -17 -6 -50 10 -40 5 3 10 2 10 -4 0 -15 27 -2 34 16
7 18 -10 43 -29 43 -7 0 -18 -7 -25 -15z"/>
<path d="M2984 2770 c0 -69 1 -97 3 -62 2 34 2 90 0 125 -2 34 -3 6 -3 -63z"/>
<path d="M1630 2648 c0 -67 2 -119 5 -116 8 8 11 238 3 238 -5 0 -8 -55 -8
-122z"/>
<path d="M2702 2638 c-17 -17 -15 -36 7 -47 26 -15 60 21 41 44 -15 18 -32 19
-48 3z"/>
<path d="M3879 2552 c-6 -80 -5 -82 57 -82 41 0 54 -4 54 -15 0 -12 -13 -15
-59 -15 l-58 0 -7 -42 c-4 -23 -11 -47 -16 -53 -25 -30 -85 -438 -95 -645 -3
-69 -8 -143 -11 -166 l-6 -40 -60 12 c-76 16 -151 5 -219 -32 -62 -34 -104
-81 -138 -154 -34 -73 -36 -190 -4 -262 30 -65 95 -133 161 -165 44 -21 51
-28 36 -34 -10 -3 30 -7 89 -8 65 0 106 3 102 8 -3 6 14 18 38 29 60 27 114
77 149 139 l30 53 91 0 92 0 24 -45 c30 -57 99 -121 159 -147 40 -18 44 -22
27 -28 -11 -5 23 -8 77 -9 53 0 99 3 102 8 3 5 30 20 60 35 66 32 120 90 154
164 51 113 25 266 -62 356 -55 56 -105 82 -190 96 -36 7 -66 17 -66 24 0 6 -4
4 -10 -4 -14 -23 -23 -4 -16 35 8 42 26 47 27 8 1 -18 5 -9 10 22 15 78 2 161
-38 249 -36 81 -40 98 -46 225 -3 55 -8 76 -21 83 -21 12 -22 86 -1 94 17 7
21 74 5 74 -5 0 -10 23 -10 50 0 44 2 50 21 50 21 0 22 3 16 73 -8 101 -12
110 -54 104 -18 -3 -60 -22 -92 -42 l-59 -35 5 -42 c7 -50 -20 -108 -50 -108
-18 0 -19 -5 -13 -47 3 -27 10 -87 16 -135 12 -109 42 -246 80 -363 15 -49 40
-150 54 -224 l26 -134 -39 -34 c-38 -32 -111 -157 -111 -189 0 -11 -25 -14
-121 -14 -121 0 -121 0 -115 23 3 12 6 30 6 40 0 11 8 17 25 17 31 0 31 6 -1
54 l-26 38 40 101 c64 164 65 170 58 286 l-6 106 59 150 c32 83 56 154 53 159
-3 5 -11 -3 -19 -18 -7 -14 -18 -26 -24 -26 -11 0 -6 21 16 76 10 24 10 44 3
78 -8 36 -6 55 5 84 11 27 12 44 5 62 -6 15 -12 20 -15 13 -3 -7 -9 -13 -14
-13 -15 0 -10 59 6 84 15 23 15 23 -42 35 -32 6 -68 14 -79 17 -20 5 -22 1
-25 -44z m429 -31 c2 -13 -1 -28 -7 -34 -8 -8 -11 -7 -11 4 0 7 -3 25 -7 38
-4 18 -2 23 8 19 8 -2 16 -15 17 -27z m-84 -95 c4 -24 13 -52 21 -62 8 -11 15
-25 15 -33 0 -11 -3 -11 -17 0 -22 19 -43 72 -43 109 0 45 17 36 24 -14z
m-224 -340 c0 -23 -30 -86 -40 -86 -14 0 -13 7 6 57 16 42 34 57 34 29z m310
-57 c0 -34 -4 -49 -11 -47 -13 4 -23 73 -15 95 11 28 26 0 26 -48z m-370 -109
c-5 -10 -10 -32 -10 -49 0 -17 -4 -31 -10 -31 -13 0 -13 66 1 91 5 11 14 17
20 14 6 -4 5 -13 -1 -25z m394 -40 c18 -46 20 -60 7 -60 -9 0 -41 71 -41 90 0
24 19 7 34 -30z m-401 -159 c-10 -54 -28 -53 -24 2 3 49 10 62 23 49 6 -6 6
-26 1 -51z m457 -11 c0 -27 -4 -50 -10 -50 -5 0 -10 12 -10 28 0 15 -3 37 -6
50 -5 16 -2 22 10 22 13 0 16 -11 16 -50z m-499 -131 l-10 -24 0 26 c-1 14 2
29 6 33 12 12 14 -9 4 -35z m-205 -169 c24 -9 29 -16 31 -48 2 -35 1 -36 -13
-17 -15 19 -15 18 -9 -10 6 -27 5 -28 -8 -12 -19 23 -26 22 -20 -3 4 -16 14
-20 47 -21 22 -1 45 -1 49 0 5 1 7 -13 5 -31 l-3 -33 -97 0 c-72 0 -98 3 -98
13 0 17 -10 15 -26 -5 -23 -30 -17 -88 12 -122 25 -29 30 -31 102 -32 43 0 96
-4 119 -7 l43 -7 -26 -33 c-104 -132 -310 -109 -388 44 -73 147 39 334 200
334 28 0 64 -5 80 -10z m819 -9 c49 -22 91 -63 117 -115 16 -31 19 -54 16
-112 -3 -61 -8 -79 -33 -116 -17 -23 -52 -56 -79 -72 -109 -68 -258 -21 -320
100 -55 111 -6 254 109 313 51 27 135 27 190 2z"/>
<path d="M3590 1315 c-26 -15 -25 -17 15 -17 49 0 54 2 49 17 -8 19 -31 19
-64 0z"/>
<path d="M4305 1320 c-18 -20 -18 -20 14 -20 25 0 32 4 29 17 -5 25 -22 26
-43 3z"/>
<path d="M4351 1251 c-24 -25 -37 -31 -71 -31 l-43 0 7 -46 c3 -25 14 -59 23
-75 16 -27 22 -29 77 -29 37 0 65 5 75 14 72 64 81 76 81 105 0 41 -36 80 -82
88 -33 5 -41 2 -67 -26z"/>
<path d="M2985 1940 c0 -344 1 -484 2 -312 2 171 2 453 0 625 -1 171 -2 31 -2
-313z"/>
<path d="M3807 2474 c-4 -4 -7 -16 -7 -26 0 -15 6 -19 28 -16 19 2 27 9 27 23
0 20 -33 33 -48 19z"/>
<path d="M2139 2383 c-12 -15 -12 -16 1 -8 13 7 13 6 2 -7 -10 -12 -9 -18 3
-28 14 -11 20 -10 38 9 22 22 22 22 3 37 -25 18 -31 18 -47 -3z"/>
<path d="M4312 2365 c0 -16 2 -22 5 -12 2 9 2 23 0 30 -3 6 -5 -1 -5 -18z"/>
<path d="M1842 1913 l46 -4 20 -87 c11 -48 37 -167 58 -264 l38 -178 38 0 c21
0 38 -4 38 -10 0 -5 -6 -10 -14 -10 -44 0 -64 -80 -25 -100 45 -25 94 18 75
65 -3 9 0 25 7 35 10 18 23 20 104 20 94 0 113 -8 69 -28 -33 -15 -42 -47 -22
-77 35 -53 104 -16 92 49 -6 29 -3 37 16 50 21 15 8 16 -169 16 -106 0 -194 4
-197 8 -3 5 -8 28 -12 50 l-7 42 59 0 59 0 -4 46 c-3 43 -2 45 20 42 19 -2 24
-10 26 -40 3 -28 -1 -38 -14 -41 -10 -3 47 -5 127 -5 86 0 133 3 115 8 -26 7
-27 8 -6 9 17 1 21 5 17 17 -3 9 -6 21 -6 27 -1 7 -7 1 -15 -13 -10 -18 -14
-20 -15 -8 0 31 12 48 36 48 16 0 24 -6 25 -17 0 -10 5 -3 10 16 6 18 8 36 5
39 -3 3 -6 -2 -6 -11 0 -12 -9 -17 -30 -17 -33 0 -35 4 -20 46 13 37 59 45 61
10 1 -14 4 -11 10 13 6 18 8 36 5 39 -3 3 -6 -1 -6 -10 0 -11 -8 -13 -31 -10
-26 4 -30 8 -25 26 3 11 6 29 6 40 0 15 6 17 40 14 22 -2 40 0 40 4 0 5 -24 8
-54 8 -46 0 -56 3 -61 20 -7 22 -31 27 -38 8 -4 -10 -6 -10 -6 0 -1 8 -18 12
-51 12 -43 0 -50 -3 -50 -20 0 -19 -7 -20 -144 -20 l-144 0 -6 38 c-4 20 -12
54 -17 75 l-10 37 -52 -2 -52 -2 47 -3z m162 -170 c4 -9 1 -20 -6 -25 -8 -5
-9 -11 -3 -15 6 -5 11 -17 13 -28 15 -90 16 -85 -10 -85 -23 0 -26 7 -41 78
-9 42 -17 81 -17 85 0 15 58 7 64 -10z m77 -5 l0 -23 11 23 c8 15 20 22 40 22
24 0 28 -4 28 -30 0 -23 -5 -30 -20 -31 -11 -1 -26 -2 -32 -3 -7 -1 -16 -5
-20 -11 -5 -6 -8 -5 -8 3 0 6 -4 12 -10 12 -5 0 -10 -9 -10 -20 0 -11 6 -19
13 -17 7 1 13 -12 15 -35 3 -35 1 -38 -22 -38 -14 0 -26 1 -26 3 0 1 -6 39
-14 85 l-13 82 33 0 c28 0 34 -4 35 -22z m137 -17 c-3 -34 -28 -58 -28 -27 0
9 -4 16 -10 16 -5 0 -10 11 -10 25 0 20 4 24 25 23 23 -2 26 -6 23 -37z m168
17 c-3 -13 -6 -31 -6 -40 0 -10 -7 -18 -15 -18 -12 0 -13 4 -5 19 5 11 10 29
10 40 0 12 5 21 11 21 7 0 9 -9 5 -22z m-256 -92 c0 -8 5 -16 12 -18 18 -6 1
-40 -19 -36 -23 4 -31 68 -9 68 9 0 16 -6 16 -14z m240 2 c0 -33 -14 -58 -31
-58 -22 0 -23 8 -9 44 10 26 40 36 40 14z m-340 -85 c0 -10 3 -28 6 -40 5 -20
2 -23 -20 -23 -14 0 -26 4 -26 9 0 5 -3 23 -6 40 -6 28 -4 31 20 31 18 0 26
-5 26 -17z m64 1 c3 -9 6 -27 6 -40 0 -19 -5 -24 -25 -24 -14 0 -25 4 -25 9 0
5 -3 23 -6 40 -6 28 -4 31 19 31 14 0 28 -7 31 -16z m256 -8 c0 -36 -10 -56
-29 -56 -10 0 -17 10 -18 28 -3 39 4 52 27 52 15 0 20 -7 20 -24z m-135 -26
c0 -24 -4 -30 -22 -30 -18 0 -22 5 -20 21 3 18 22 38 37 39 3 0 6 -13 5 -30z
m58 -27 c-7 -2 -19 -2 -25 0 -7 3 -2 5 12 5 14 0 19 -2 13 -5z m-190 -196 c4
3 7 -1 7 -10 0 -20 -23 -22 -39 -4 -13 17 -2 31 14 17 7 -5 15 -7 18 -3z m227
2 c0 -6 7 -8 16 -5 10 4 14 1 12 -6 -7 -19 -42 -15 -46 5 -2 9 1 17 7 17 6 0
11 -5 11 -11z"/>
<path d="M2055 1720 c3 -5 8 -10 11 -10 2 0 4 5 4 10 0 6 -5 10 -11 10 -5 0
-7 -4 -4 -10z"/>
<path d="M2045 1865 c-5 -2 -22 -6 -37 -9 -16 -4 -28 -12 -28 -20 0 -11 9 -11
52 -1 28 6 54 17 56 23 3 11 -20 15 -43 7z"/>
<path d="M2461 1724 c0 -11 3 -14 6 -6 3 7 2 16 -1 19 -3 4 -6 -2 -5 -13z"/>
<path d="M1675 1270 c0 -289 0 -296 22 -326 47 -65 34 -64 632 -64 596 0 588
-1 632 61 22 32 24 43 25 169 1 74 -1 111 -3 83 l-4 -53 -152 -2 -152 -2 150
-6 150 -5 -1 -71 c0 -56 -5 -77 -22 -101 -45 -64 -35 -63 -624 -63 -501 0
-535 1 -568 19 -52 27 -73 71 -74 150 l-1 66 410 5 410 5 -412 3 -413 2 -3
213 c-2 137 -3 108 -2 -83z"/>
<path d="M2411 1524 c0 -11 3 -14 6 -6 3 7 2 16 -1 19 -3 4 -6 -2 -5 -13z"/>
<path d="M2568 1133 c12 -2 30 -2 40 0 9 3 -1 5 -23 4 -22 0 -30 -2 -17 -4z"/>
<path d="M2252 1062 c-9 -6 -12 -26 -10 -58 l3 -49 85 0 85 0 0 55 0 55 -75 3
c-41 1 -81 -2 -88 -6z m116 -11 l43 -1 -3 -42 -3 -43 -75 0 -75 0 -3 42 c-3
43 6 52 53 47 11 -1 39 -3 63 -3z"/>
<path d="M1500 880 l-145 -6 198 -2 c130 -1 196 1 192 8 -3 6 -27 9 -53 8 -26
-1 -112 -5 -192 -8z"/>
<path d="M1183 873 c9 -2 25 -2 35 0 9 3 1 5 -18 5 -19 0 -27 -2 -17 -5z"/>
<path d="M1273 873 c9 -2 23 -2 30 0 6 3 -1 5 -18 5 -16 0 -22 -2 -12 -5z"/>
<path d="M3878 853 c7 -3 16 -2 19 1 4 3 -2 6 -13 5 -11 0 -14 -3 -6 -6z"/>
<path d="M4523 853 c9 -2 23 -2 30 0 6 3 -1 5 -18 5 -16 0 -22 -2 -12 -5z"/>
<path d="M4618 853 c7 -3 16 -2 19 1 4 3 -2 6 -13 5 -11 0 -14 -3 -6 -6z"/>
</g>
</svg>
