<?xml version="1.0" standalone="no"?>
<!DOCTYPE svg PUBLIC "-//W3C//DTD SVG 20010904//EN"
 "http://www.w3.org/TR/2001/REC-SVG-20010904/DTD/svg10.dtd">
<svg version="1.0" xmlns="http://www.w3.org/2000/svg"
 width="626.000000pt" height="330.000000pt" viewBox="0 0 626.000000 330.000000"
 preserveAspectRatio="xMidYMid meet">

<g transform="translate(0.000000,330.000000) scale(0.100000,-0.100000)"
fill="#000000" stroke="none">
<path d="M4700 2135 l0 -825 60 0 c57 0 60 2 76 31 14 27 14 39 3 96 -12 60
-12 66 5 78 13 10 16 20 10 37 -28 88 -41 327 -18 335 16 6 31 -36 62 -182
l29 -129 7 74 c10 98 11 103 20 118 4 6 5 12 2 12 -5 0 28 103 40 121 11 19
24 -12 24 -60 0 -84 11 -33 23 115 8 82 12 151 11 153 -2 2 -15 -6 -30 -18
-16 -13 -35 -19 -46 -15 -11 3 -38 -6 -68 -25 -62 -38 -102 -40 -120 -7 -24
46 -9 56 86 56 48 0 84 3 80 8 -4 4 -47 7 -94 7 -68 0 -89 -3 -94 -15 -4 -8
-6 4 -6 28 l2 42 52 0 c33 0 54 -5 57 -12 4 -9 8 -10 14 -2 4 6 15 14 23 17
12 4 12 6 -2 6 -33 2 -6 37 64 84 59 40 77 47 118 47 l47 0 17 128 c27 207 36
311 36 420 l0 102 -245 0 -245 0 0 -825z m260 373 c0 -9 4 -8 11 2 8 11 9 -1
5 -44 l-6 -59 31 7 32 6 -41 -30 c-47 -34 -85 -94 -103 -162 l-13 -48 -48 0
c-48 0 -48 0 -48 33 0 62 61 197 121 270 30 37 59 48 59 25z"/>
<path d="M4920 2479 c-6 -11 -10 -25 -7 -32 2 -6 9 3 15 21 12 36 8 42 -8 11z"/>
<path d="M4951 2474 c0 -11 3 -14 6 -6 3 7 2 16 -1 19 -3 4 -6 -2 -5 -13z"/>
<path d="M5307 2493 c-10 -9 -9 -23 2 -23 5 0 11 7 15 15 5 15 -5 20 -17 8z"/>
<path d="M5361 2454 c0 -11 3 -14 6 -6 3 7 2 16 -1 19 -3 4 -6 -2 -5 -13z"/>
<path d="M5240 2440 c0 -5 5 -10 10 -10 6 0 10 5 10 10 0 6 -4 10 -10 10 -5 0
-10 -4 -10 -10z"/>
<path d="M5266 2418 c-3 -13 -2 -26 3 -31 4 -4 8 -2 8 5 0 7 4 21 8 31 4 9 3
17 -3 17 -5 0 -12 -10 -16 -22z"/>
<path d="M5307 2433 c-6 -11 -2 -51 6 -59 4 -4 7 9 7 29 0 36 -4 45 -13 30z"/>
<path d="M5370 2400 c0 -19 3 -21 12 -12 9 9 9 15 0 24 -9 9 -12 7 -12 -12z"/>
<path d="M3442 2366 c-1 -12 0 -31 3 -44 l6 -23 167 7 c92 3 172 10 178 15 5
4 20 6 32 2 20 -5 22 -2 19 28 l-3 34 -200 1 c-195 0 -200 0 -202 -20z m198 4
c0 -5 -5 -10 -11 -10 -5 0 -7 5 -4 10 3 6 8 10 11 10 2 0 4 -4 4 -10z m120 6
c0 -3 -4 -8 -10 -11 -5 -3 -10 -1 -10 4 0 6 5 11 10 11 6 0 10 -2 10 -4z
m-260 -16 c0 -5 -5 -10 -11 -10 -5 0 -7 5 -4 10 3 6 8 10 11 10 2 0 4 -4 4
-10z m208 -7 c-2 -12 3 -18 15 -17 9 1 17 -2 17 -7 0 -14 -26 -10 -40 6 -6 8
-9 19 -5 25 10 16 16 12 13 -7z m-241 -12 c0 -11 -5 -18 -9 -15 -4 3 -5 11 -1
19 7 21 12 19 10 -4z m213 -6 c14 -19 14 -19 -2 -6 -10 7 -18 18 -18 24 0 6 1
8 3 6 1 -2 9 -13 17 -24z m-175 -5 c3 -6 -1 -7 -9 -4 -18 7 -21 14 -7 14 6 0
13 -4 16 -10z m275 0 c-8 -5 -19 -10 -25 -10 -5 0 -3 5 5 10 8 5 20 10 25 10
6 0 3 -5 -5 -10z m-163 -6 c-3 -3 -12 -4 -19 -1 -8 3 -5 6 6 6 11 1 17 -2 13
-5z"/>
<path d="M3219 2355 c-15 -8 -29 -23 -32 -35 -5 -19 -1 -20 88 -20 89 0 93 1
88 20 -11 43 -93 63 -144 35z"/>
<path d="M5392 2297 c-17 -18 -22 -36 -22 -75 l0 -52 53 1 c28 0 46 3 39 6
-10 4 -9 9 4 24 16 18 19 18 43 3 l26 -15 -23 20 c-12 11 -20 26 -16 34 5 13
-59 77 -77 77 -3 0 -15 -10 -27 -23z m11 -72 c14 -39 14 -45 1 -45 -8 0 -14 6
-14 14 0 7 -3 28 -6 45 -9 46 2 38 19 -14z"/>
<path d="M3180 2226 c0 -56 3 -67 22 -81 28 -19 40 1 13 21 -16 12 -15 13 11
13 104 -1 134 3 134 21 0 10 9 22 20 25 26 8 26 41 1 55 -11 5 -60 10 -110 10
l-91 0 0 -64z"/>
<path d="M3690 2283 c0 -4 17 -18 38 -31 l37 -23 -30 25 -30 26 37 0 c20 0 39
-5 41 -10 3 -6 4 -5 3 2 -3 14 -96 25 -96 11z"/>
<path d="M5305 2271 c-8 -26 1 -39 16 -24 8 8 8 17 1 29 -9 16 -10 15 -17 -5z"/>
<path d="M3534 2260 c0 -11 1 -20 3 -20 1 0 7 9 13 20 8 15 8 20 -3 20 -7 0
-13 -9 -13 -20z"/>
<path d="M3491 2248 c0 -16 2 -18 6 -8 3 8 11 18 17 22 7 5 4 8 -6 8 -12 0
-18 -7 -17 -22z"/>
<path d="M3791 2232 c-1 -8 -6 -10 -13 -6 -10 5 -10 4 -1 -6 15 -16 28 -8 20
12 -4 11 -6 11 -6 0z"/>
<path d="M3500 2204 c0 -8 5 -12 10 -9 6 4 8 11 5 16 -9 14 -15 11 -15 -7z"/>
<path d="M3590 2211 c0 -5 8 -15 18 -22 15 -13 16 -12 4 3 -12 15 -9 17 25 21
l38 4 -42 1 c-24 1 -43 -2 -43 -7z"/>
<path d="M5306 2198 c-16 -23 -9 -40 17 -44 9 -1 12 9 9 32 -5 40 -6 41 -26
12z"/>
<path d="M5347 2213 c-3 -5 -1 -17 4 -28 7 -17 8 -17 8 8 1 27 -4 34 -12 20z"/>
<path d="M3696 2184 c-4 -14 -5 -28 -3 -31 3 -2 8 8 11 23 4 14 5 28 3 31 -3
2 -8 -8 -11 -23z"/>
<path d="M5530 2090 l0 -90 -45 0 c-25 0 -45 -4 -45 -9 0 -17 20 -64 26 -59 2
3 0 17 -5 32 -10 26 -10 26 34 26 l45 0 0 95 c0 52 -2 95 -5 95 -3 0 -5 -40
-5 -90z"/>
<path d="M3620 2166 c0 -2 8 -10 18 -17 15 -13 16 -12 3 4 -13 16 -21 21 -21
13z"/>
<path d="M3650 2126 c0 -2 8 -10 18 -17 15 -13 16 -12 3 4 -13 16 -21 21 -21
13z"/>
<path d="M3549 2103 c-13 -16 -12 -17 4 -4 16 13 21 21 13 21 -2 0 -10 -8 -17
-17z"/>
<path d="M5372 1966 l2 -151 3 143 4 142 31 0 c39 0 32 9 -10 14 l-32 3 2
-151z"/>
<path d="M5602 2110 c-4 -3 -8 -13 -10 -22 -2 -12 2 -16 13 -12 8 3 15 11 15
16 0 6 10 8 23 4 13 -3 36 -1 52 3 17 5 26 10 20 11 -28 5 -106 5 -113 0z"/>
<path d="M3772 2077 c-28 -30 -28 -37 3 -37 21 0 25 5 25 30 0 36 -1 36 -28 7z
m18 -12 c0 -8 -7 -15 -16 -15 -14 0 -14 3 -4 15 7 8 14 15 16 15 2 0 4 -7 4
-15z"/>
<path d="M3240 2064 c0 -13 -7 -25 -17 -28 -196 -54 -203 -60 -203 -191 0 -82
2 -93 18 -97 16 -4 20 -19 26 -89 4 -50 13 -90 21 -99 11 -12 15 -42 15 -107
0 -64 4 -93 13 -96 10 -4 10 -6 0 -6 -7 -1 -13 -9 -13 -19 0 -10 6 -24 13 -31
10 -11 9 -12 -2 -6 -10 6 -12 1 -6 -26 4 -24 3 -30 -4 -19 -7 10 -9 -3 -6 -45
4 -45 2 -54 -5 -35 l-9 25 1 -25 c1 -14 -2 -32 -5 -40 -15 -39 -44 -149 -38
-146 4 3 -5 -21 -20 -52 -20 -41 -25 -60 -17 -69 11 -14 28 -9 28 8 0 6 -4 7
-10 4 -5 -3 -10 1 -10 9 0 10 6 13 15 10 18 -7 20 -40 3 -47 -10 -4 -10 -8 1
-15 10 -7 7 -10 -12 -9 -14 0 -28 6 -32 15 -4 12 -3 13 10 2 8 -7 15 -8 15 -2
0 22 -32 22 -50 0 -10 -13 -15 -25 -12 -28 4 -3 8 -21 9 -40 2 -28 0 -31 -7
-15 -8 18 -9 18 -9 2 -1 -10 -6 -15 -12 -11 -8 4 -8 9 0 17 6 6 11 17 11 25 0
16 -24 11 -26 -6 -1 -7 -2 -17 -3 -23 0 -5 -5 -8 -10 -5 -5 3 -14 -1 -21 -9
-7 -8 -19 -15 -27 -15 -8 0 -12 -4 -8 -9 3 -6 15 -8 27 -6 11 3 28 0 37 -6 13
-8 13 -9 -4 -5 -11 3 -27 1 -35 -5 -12 -8 -8 -15 24 -44 22 -19 47 -35 56 -35
9 0 22 -6 29 -13 8 -6 11 -7 8 -1 -4 6 14 29 38 50 25 21 43 44 41 51 -3 7 0
15 6 19 7 5 8 2 3 -7 -11 -21 43 43 57 66 10 18 10 19 -6 6 -14 -12 -16 -12
-10 2 3 9 15 19 26 23 11 3 17 8 14 11 -3 3 -1 14 4 24 6 10 6 20 1 23 -5 3
-14 -8 -20 -24 -12 -36 -16 -38 -16 -6 0 13 3 22 8 19 11 -6 9 11 -3 23 -7 7
-1 10 20 9 16 -1 33 -5 37 -10 5 -4 3 -5 -4 -1 -8 4 -11 -1 -10 -14 1 -11 2
-20 3 -20 11 0 43 72 38 86 -4 14 -3 15 3 6 13 -17 64 95 98 214 27 93 45 135
42 98 -1 -26 22 -84 35 -84 6 0 8 -6 5 -13 -3 -7 1 -24 8 -37 12 -22 13 -22
23 -4 6 10 11 15 12 9 0 -5 -4 -16 -9 -24 -9 -13 22 -118 38 -131 3 -3 7 -20
8 -39 1 -19 7 -39 12 -44 5 -5 6 -26 4 -48 -5 -33 -3 -39 13 -39 15 0 16 -2 5
-9 -11 -7 -11 -9 0 -14 10 -4 9 -6 -3 -6 -11 -1 -18 -8 -17 -18 0 -11 3 -13 6
-5 2 6 9 12 15 12 6 0 4 -8 -5 -18 -20 -22 -22 -36 -4 -27 6 4 4 0 -5 -8 -19
-15 -14 -61 6 -54 7 3 13 -5 14 -16 1 -16 -1 -18 -7 -8 -6 9 -16 11 -27 6 -18
-7 -18 -8 1 -15 11 -5 14 -9 7 -9 -14 -1 -42 -25 -42 -36 0 -4 6 -5 12 -3 7 3
19 -1 26 -9 17 -16 122 -18 122 -2 0 6 6 9 13 6 7 -2 13 4 13 17 1 11 4 48 7
81 4 41 2 62 -6 67 -8 5 -7 8 5 8 26 0 19 257 -11 364 -31 111 -75 221 -88
219 -6 -1 -14 4 -17 13 -4 10 -2 13 6 8 7 -4 8 -3 4 5 -5 7 -25 10 -59 6 -57
-6 -54 0 6 10 l39 6 -4 54 c-1 29 0 51 5 48 4 -2 7 -2 7 2 0 3 -10 10 -22 16
-22 9 -22 9 2 5 24 -5 24 -5 5 10 -14 11 -36 14 -77 12 l-56 -4 -6 35 c-9 57
-8 59 34 66 22 4 42 5 44 3 8 -7 45 35 39 45 -4 7 0 8 11 4 13 -5 17 -3 13 7
-4 11 -1 13 10 9 10 -4 14 -2 10 4 -4 7 8 10 34 9 39 -2 59 -16 59 -43 0 -7 4
-13 10 -13 5 0 7 7 4 15 -4 8 -1 15 5 15 6 0 11 -9 11 -19 0 -11 5 -23 10 -26
8 -5 7 -12 -2 -23 -10 -12 -10 -14 0 -8 6 4 12 3 12 -3 0 -5 -4 -13 -10 -16
-15 -9 -12 -27 3 -19 6 4 8 3 4 -1 -11 -13 -37 -15 -37 -3 0 6 -6 5 -15 -2 -8
-7 -15 -9 -15 -5 0 4 -12 0 -26 -10 -14 -9 -32 -14 -40 -11 -8 3 -14 -1 -14
-9 0 -8 6 -15 14 -15 7 0 19 -7 26 -16 11 -13 39 -15 167 -13 105 1 156 6 163
14 6 8 9 88 8 211 l-3 199 -55 8 c-30 4 -155 7 -278 5 l-222 -3 0 53 0 52 50
0 c49 0 50 0 50 31 l0 32 -54 -7 c-30 -3 -56 -2 -58 3 -2 4 -24 10 -50 13 -45
5 -48 4 -48 -18z m353 -181 c-7 -2 -19 -2 -25 0 -7 3 -2 5 12 5 14 0 19 -2 13
-5z m80 0 c-7 -2 -21 -2 -30 0 -10 3 -4 5 12 5 17 0 24 -2 18 -5z m127 -1 c-6
-2 -7 -9 -4 -14 4 -7 2 -8 -4 -4 -7 4 -31 11 -54 15 -43 9 -42 9 14 7 32 0 53
-3 48 -4z m80 4 c0 -2 -8 -10 -17 -17 -16 -13 -17 -12 -4 4 13 16 21 21 21 13z
m-425 -13 c-17 -3 -20 -11 -19 -46 1 -37 1 -38 -3 -6 -3 25 -11 39 -24 46 -17
7 -12 9 23 9 23 1 34 -1 23 -3z m422 -145 c-3 -7 -5 -2 -5 12 0 14 2 19 5 13
2 -7 2 -19 0 -25z m-394 -36 c3 7 6 8 6 2 1 -6 -10 -20 -22 -32 l-24 -22 3 22
c1 13 3 27 3 32 1 5 7 3 15 -3 11 -9 15 -9 19 1z m172 -2 c3 -5 2 -10 -4 -10
-5 0 -13 5 -16 10 -3 6 -2 10 4 10 5 0 13 -4 16 -10z m-165 -34 c0 -2 -8 -10
-17 -17 -16 -13 -17 -12 -4 4 13 16 21 21 21 13z m387 -98 c-2 -13 -4 -3 -4
22 0 25 2 35 4 23 2 -13 2 -33 0 -45z m3 -33 c0 -1 -6 -8 -14 -14 -11 -9 -15
-7 -19 8 -3 14 0 17 14 14 11 -3 19 -7 19 -8z m-234 -13 c-21 -2 -42 0 -47 5
-4 4 13 6 39 3 l47 -5 -39 -3z m-201 -12 c-16 -4 -39 -8 -50 -8 -16 0 -15 2 5
8 14 4 36 8 50 8 22 0 22 -1 -5 -8z m450 0 c-3 -5 -12 -10 -18 -10 -7 0 -6 4
3 10 19 12 23 12 15 0z m-765 -170 c-13 -8 -12 -10 4 -10 11 0 17 -3 13 -6 -3
-4 -13 -4 -22 0 -18 6 -11 26 8 26 7 0 6 -4 -3 -10z m190 -12 c10 -6 7 -7 -10
-2 -14 3 -32 11 -40 16 -10 6 -7 7 10 2 14 -3 32 -11 40 -16z m50 12 c8 -5 11
-10 5 -10 -5 0 -17 5 -25 10 -8 5 -10 10 -5 10 6 0 17 -5 25 -10z m67 -16 c-3
-3 -12 -4 -19 -1 -8 3 -5 6 6 6 11 1 17 -2 13 -5z m89 -5 c5 -8 9 -8 14 1 4 7
8 1 8 -15 0 -23 -2 -25 -10 -11 -5 10 -19 21 -31 26 -17 7 -18 9 -5 9 9 1 20
-4 24 -10z m16 -58 c8 11 9 10 4 -5 -5 -14 -2 -17 9 -12 9 3 13 2 10 -4 -3 -6
0 -10 7 -11 10 0 10 -2 1 -6 -20 -7 -15 -23 5 -16 13 5 14 3 5 -7 -14 -15 -36
-3 -29 16 7 17 -5 18 -24 2 -12 -11 -12 -10 -2 4 9 11 10 18 2 23 -5 3 -9 16
-9 28 2 20 2 20 6 -2 4 -19 7 -21 15 -10z m-228 -17 c3 -8 2 -12 -4 -9 -6 3
-10 10 -10 16 0 14 7 11 14 -7z m-16 -29 c-3 -3 -9 2 -12 12 -6 14 -5 15 5 6
7 -7 10 -15 7 -18z m-181 -7 c-3 -8 -6 -5 -6 6 -1 11 2 17 5 13 3 -3 4 -12 1
-19z m312 1 c-12 -23 -11 -32 2 -23 8 4 8 0 0 -15 -16 -29 -19 -27 -15 14 2
33 -10 49 -18 23 -3 -8 -6 -7 -10 3 -5 12 1 15 22 15 24 0 27 -2 19 -17z m131
-50 c0 -3 -6 -6 -12 -6 -7 0 -14 11 -14 24 -2 22 -1 23 12 6 7 -10 14 -21 14
-24z m36 0 c19 -22 19 -22 -3 -8 -13 8 -23 17 -23 21 0 12 6 9 26 -13z m-484
-26 c-3 -16 -7 -22 -10 -15 -4 13 4 42 11 42 2 0 2 -12 -1 -27z m158 0 c0 -15
-2 -15 -9 -4 -8 12 -12 12 -25 2 -15 -13 -23 -2 -9 12 13 14 43 7 43 -10z m-2
-53 c-14 -22 -24 -19 -15 5 4 8 11 15 17 15 6 0 6 -7 -2 -20z m345 -20 c3 -11
1 -23 -4 -26 -5 -3 -9 6 -9 20 0 31 6 34 13 6z m-137 -22 c-9 -12 -16 -17 -16
-10 0 14 23 42 29 37 1 -2 -4 -14 -13 -27z m-254 0 c-14 -14 -16 -32 -3 -24 5
3 11 -1 15 -9 3 -8 -2 -19 -12 -24 -14 -7 -17 -5 -16 17 1 32 14 65 22 57 3
-3 0 -11 -6 -17z m-116 -23 c-6 -24 -26 -27 -26 -4 0 6 5 7 10 4 6 -3 10 4 10
16 0 12 3 20 6 16 4 -3 3 -18 0 -32z m-43 10 c-3 -9 -8 -14 -10 -11 -3 3 -2 9
2 15 9 16 15 13 8 -4z m434 -32 c-3 -10 -5 -2 -5 17 0 19 2 27 5 18 2 -10 2
-26 0 -35z m20 -15 c-3 -7 -5 -2 -5 12 0 14 2 19 5 13 2 -7 2 -19 0 -25z m123
8 c0 -2 -7 -9 -15 -16 -13 -11 -14 -10 -9 4 5 14 24 23 24 12z m-604 -50 c0
-14 -5 -21 -9 -17 -4 4 -5 15 -1 24 9 24 12 21 10 -7z m474 14 c0 -5 -5 -10
-11 -10 -5 0 -7 5 -4 10 3 6 8 10 11 10 2 0 4 -4 4 -10z m133 -45 c-3 -9 -8
-14 -10 -11 -3 3 -2 9 2 15 9 16 15 13 8 -4z m-16 -97 c-3 -8 -6 -5 -6 6 -1
11 2 17 5 13 3 -3 4 -12 1 -19z m-536 -45 c-8 -15 -10 -15 -11 -2 0 17 10 32
18 25 2 -3 -1 -13 -7 -23z m-171 -15 c0 -4 -4 -8 -9 -8 -6 0 -12 4 -15 8 -3 5
1 9 9 9 8 0 15 -4 15 -9z m30 -18 c0 -5 -4 -10 -10 -10 -5 0 -10 5 -10 10 0 6
5 10 10 10 6 0 10 -4 10 -10z m1 -51 c12 -12 27 -18 37 -15 15 5 15 5 0 -7
-10 -8 -14 -17 -11 -21 11 -11 -49 13 -64 26 -7 6 -13 16 -13 22 0 6 5 3 11
-7 6 -9 15 -15 20 -11 6 4 6 11 -2 20 -18 22 -2 17 22 -7z m676 5 c-3 -3 -12
-4 -19 -1 -8 3 -5 6 6 6 11 1 17 -2 13 -5z m-3 -59 c3 -8 1 -15 -4 -15 -6 0
-10 7 -10 15 0 8 2 15 4 15 2 0 6 -7 10 -15z m-107 -25 c2 -29 -14 -34 -27 -9
-7 13 -8 19 -2 15 6 -3 13 -2 17 4 9 14 11 13 12 -10z"/>
<path d="M2948 643 c7 -3 16 -2 19 1 4 3 -2 6 -13 5 -11 0 -14 -3 -6 -6z"/>
<path d="M3517 2083 c-10 -9 -9 -23 1 -23 5 0 9 7 9 15 0 17 -1 18 -10 8z"/>
<path d="M5746 2073 c-6 -14 -5 -15 5 -6 7 7 10 15 7 18 -3 3 -9 -2 -12 -12z"/>
<path d="M5630 2071 c0 -7 -4 -9 -10 -6 -5 3 -10 1 -10 -4 0 -6 4 -11 9 -11
13 0 25 20 17 27 -3 4 -6 1 -6 -6z"/>
<path d="M5660 2062 c0 -12 3 -12 15 -2 8 7 15 13 15 15 0 1 -7 2 -15 2 -8 0
-15 -7 -15 -15z"/>
<path d="M3548 2053 c7 -3 16 -2 19 1 4 3 -2 6 -13 5 -11 0 -14 -3 -6 -6z"/>
<path d="M5636 2042 c-3 -6 -1 -14 5 -17 14 -9 20 -2 10 14 -6 8 -11 9 -15 3z"/>
<path d="M5722 2014 c-7 -14 -8 -23 -3 -19 5 3 12 -7 14 -22 2 -18 5 -10 6 20
0 26 -1 47 -2 47 -2 0 -9 -12 -15 -26z"/>
<path d="M282 2018 c-17 -17 -17 -1299 0 -1316 7 -7 34 -12 61 -12 46 0 49 -1
43 -22 -3 -13 -6 -29 -6 -35 0 -7 -11 -13 -25 -13 -19 0 -25 -5 -26 -22 -1
-17 -2 -19 -6 -5 -3 12 -15 17 -44 17 -36 0 -39 -2 -39 -29 l0 -29 88 -7 c87
-8 102 -14 102 -48 0 -30 40 -104 78 -143 103 -106 281 -117 399 -24 42 33 80
91 100 155 20 60 20 60 61 63 41 3 42 4 42 38 0 29 -4 34 -23 34 -17 0 -25 9
-33 35 l-11 35 236 0 c171 0 240 3 249 12 17 17 17 1299 0 1316 -17 17 -1229
17 -1246 0z m1243 -658 l0 -655 -245 -3 -245 -2 -19 35 c-27 50 -88 102 -155
133 -47 22 -70 27 -141 26 -126 0 -215 -45 -287 -146 l-36 -49 -56 3 -56 3 -3
645 c-1 355 0 651 3 658 3 10 133 12 622 10 l618 -3 0 -655z m-562 -672 c19
-30 32 -102 17 -93 -6 4 -10 20 -10 37 0 19 -14 50 -37 82 -20 28 -25 40 -12
26 13 -14 32 -37 42 -52z m-173 10 c146 -74 94 -290 -70 -290 -88 0 -154 64
-154 151 0 63 28 109 83 138 55 29 85 29 141 1z m210 -128 c0 -3 -6 -14 -12
-23 -12 -16 -13 -15 -13 6 0 13 6 24 13 24 6 0 12 -3 12 -7z m-10 -60 c0 -21
-33 -90 -43 -90 -6 0 -7 -3 -3 -7 7 -7 -53 -73 -67 -73 -5 0 8 16 29 35 21 19
34 35 30 35 -4 0 1 12 12 28 10 15 17 33 15 40 -3 6 0 12 6 12 6 0 8 7 5 15
-4 8 -1 15 5 15 6 0 11 -4 11 -10z"/>
<path d="M869 1893 c-1 -4 0 -45 1 -90 1 -52 -2 -83 -9 -83 -6 0 -11 32 -13
78 -2 60 -6 77 -18 77 -12 0 -16 -18 -21 -80 -4 -64 -6 -69 -7 -28 -2 53 -17
77 -33 52 -5 -8 -9 -71 -9 -140 0 -95 4 -130 15 -145 8 -11 14 -42 15 -76 0
-31 4 -60 10 -63 5 -3 41 -9 80 -12 l70 -6 0 71 c0 49 4 75 15 86 23 23 33 58
40 139 6 65 4 75 -11 81 -10 4 -21 2 -24 -4 -11 -18 -20 16 -20 77 0 46 -3 54
-17 51 -15 -3 -19 -17 -23 -83 l-4 -80 -6 89 c-3 59 -9 91 -17 94 -7 2 -13 0
-14 -5z"/>
<path d="M572 1241 c-8 -5 -12 -21 -10 -37 2 -23 9 -30 28 -31 25 -3 25 -3 3
7 -13 5 -23 18 -23 30 0 12 9 24 23 30 12 5 15 9 7 9 -8 0 -21 -3 -28 -8z"/>
<path d="M630 1236 c-19 -24 -4 -68 22 -64 29 4 46 33 32 56 -15 23 -38 26
-54 8z m44 -11 c8 -21 -3 -45 -20 -45 -8 0 -17 7 -20 15 -8 21 2 45 20 45 7 0
16 -7 20 -15z"/>
<path d="M702 1210 c1 -32 2 -37 5 -16 l5 29 23 -29 24 -29 -1 45 c-1 32 -2
37 -5 16 l-5 -29 -23 29 -24 29 1 -45z"/>
<path d="M777 1242 c6 -4 13 -23 16 -42 l4 -35 1 37 c1 20 8 39 15 41 6 3 -1
6 -18 6 -17 0 -25 -3 -18 -7z"/>
<path d="M832 1213 c-6 -20 -9 -39 -7 -41 2 -2 7 7 11 22 3 14 11 26 16 26 6
0 8 -6 5 -13 -2 -6 3 -19 11 -27 14 -13 15 -12 9 4 -4 10 -10 29 -13 42 -9 34
-19 30 -32 -13z"/>
<path d="M900 1236 c-20 -25 -8 -61 20 -63 25 -3 25 -3 3 7 -13 5 -23 18 -23
30 0 12 9 24 23 30 15 6 17 9 6 9 -9 1 -22 -6 -29 -13z"/>
<path d="M960 1240 c8 -5 15 -20 16 -35 2 -40 14 -42 14 -2 0 19 6 38 13 40 6
3 -4 6 -23 6 -25 1 -31 -2 -20 -9z"/>
<path d="M1022 1213 c-2 -39 0 -43 21 -42 16 1 17 3 5 6 -11 3 -18 17 -21 41
l-4 37 -1 -42z"/>
<path d="M1070 1210 c0 -35 3 -40 23 -39 16 1 18 2 5 6 -10 2 -18 11 -18 18 0
7 8 16 18 18 16 4 16 5 0 6 -10 0 -18 5 -18 10 0 5 8 12 18 14 13 4 11 5 -5 6
-20 1 -23 -4 -23 -39z"/>
<path d="M1126 1235 c-3 -9 3 -19 14 -25 25 -13 26 -27 3 -33 -17 -4 -17 -5 0
-6 26 -2 33 27 11 44 -17 13 -17 16 -4 25 13 8 13 10 -1 10 -9 0 -19 -7 -23
-15z"/>
<path d="M1185 1239 c-4 -5 0 -18 9 -28 20 -22 20 -28 -1 -34 -14 -4 -13 -5 3
-6 30 -1 38 26 14 41 -25 16 -25 25 -2 31 15 4 15 5 0 6 -9 0 -20 -4 -23 -10z"/>
<path d="M650 1080 c0 -35 3 -40 23 -40 45 0 65 50 28 70 -38 20 -51 13 -51
-30z m50 6 c0 -7 -7 -19 -15 -26 -13 -11 -15 -8 -15 14 0 16 5 26 15 26 8 0
15 -6 15 -14z"/>
<path d="M730 1080 c0 -37 2 -40 28 -40 24 1 25 2 8 11 -15 9 -16 13 -5 20 12
8 12 11 -1 19 -10 6 -11 10 -2 10 6 0 12 5 12 10 0 6 -9 10 -20 10 -17 0 -20
-7 -20 -40z"/>
<path d="M790 1080 c0 -37 2 -40 28 -40 24 1 25 2 10 14 -10 7 -18 25 -18 40
0 14 -4 26 -10 26 -5 0 -10 -18 -10 -40z"/>
<path d="M850 1082 c0 -23 4 -42 9 -42 10 0 9 65 -1 76 -5 4 -8 -11 -8 -34z"/>
<path d="M884 1091 c3 -18 6 -37 6 -42 0 -5 6 -9 14 -9 8 0 20 16 26 36 15 43
5 58 -11 18 -11 -25 -13 -26 -17 -9 -8 37 -25 43 -18 6z"/>
<path d="M950 1080 c0 -36 3 -40 25 -40 14 0 25 5 25 11 0 5 -4 8 -9 4 -5 -3
-12 -1 -16 5 -3 5 1 10 9 10 22 0 20 17 -1 23 -17 4 -17 5 0 6 27 2 20 21 -8
21 -22 0 -25 -4 -25 -40z"/>
<path d="M1010 1080 c0 -38 20 -60 20 -22 1 16 1 16 14 0 19 -25 23 -22 22 15
-1 35 -11 47 -38 47 -14 0 -18 -9 -18 -40z m40 16 c0 -3 -4 -8 -10 -11 -5 -3
-10 -1 -10 4 0 6 5 11 10 11 6 0 10 -2 10 -4z"/>
<path d="M1081 1110 c0 -8 6 -28 14 -45 12 -26 13 -27 14 -8 1 12 6 25 11 28
6 3 10 14 10 23 -1 16 -1 16 -13 0 -12 -15 -14 -15 -24 0 -10 14 -12 14 -12 2z"/>
<path d="M1600 1630 l0 -400 459 0 460 0 -15 49 c-43 145 -187 393 -378 650
l-76 101 -225 0 -225 0 0 -400z"/>
<path d="M5655 1970 c-3 -5 1 -10 10 -10 9 0 13 5 10 10 -3 6 -8 10 -10 10 -2
0 -7 -4 -10 -10z"/>
<path d="M5517 1900 c-10 -19 -20 -50 -23 -68 -7 -33 -7 -33 -57 -31 -67 4
-72 -15 -10 -34 l48 -15 -52 -1 c-63 -1 -69 -16 -13 -31 33 -9 44 -8 64 5 17
11 33 14 48 9 13 -4 28 -7 33 -6 6 1 -2 -8 -17 -21 -31 -25 -37 -61 -12 -71
13 -5 14 -9 4 -21 -8 -9 -8 -15 -2 -15 6 0 12 4 14 8 2 5 20 12 41 15 35 5 42
1 39 -24 -2 -12 53 -15 88 -6 l35 9 -32 13 c-17 7 -35 20 -39 28 -5 7 -29 20
-54 28 -34 10 -46 20 -48 37 -2 12 1 22 6 22 6 0 8 -9 5 -19 -4 -15 0 -20 15
-18 11 0 18 5 16 9 -3 5 -10 5 -16 2 -7 -4 -8 -2 -4 4 5 9 13 9 26 2 13 -7 20
-6 22 1 3 8 9 6 20 -4 8 -9 19 -13 23 -9 4 4 23 7 43 7 l37 0 0 45 c0 41 -3
46 -35 62 -19 10 -47 20 -62 23 -23 4 -30 13 -39 50 -8 30 -17 45 -28 46 -9 0
-28 1 -42 3 -20 1 -29 -6 -42 -34z m60 -87 c5 -15 -29 -51 -52 -55 -26 -4 -33
42 -10 65 16 17 56 10 62 -10z"/>
<path d="M4991 1760 c0 -14 -4 -36 -7 -50 -5 -22 -4 -23 6 -7 6 9 9 32 7 50
-3 25 -4 26 -6 7z"/>
<path d="M4861 1755 c0 -11 4 -27 9 -35 9 -13 10 -13 9 0 0 8 -4 24 -9 35 l-9
20 0 -20z"/>
<path d="M5106 1745 c-9 -26 -7 -32 5 -12 6 10 9 21 6 23 -2 3 -7 -2 -11 -11z"/>
<path d="M4842 1710 c0 -19 2 -27 5 -17 2 9 2 25 0 35 -3 9 -5 1 -5 -18z"/>
<path d="M5011 1724 c0 -11 3 -14 6 -6 3 7 2 16 -1 19 -3 4 -6 -2 -5 -13z"/>
<path d="M5092 1690 c0 -14 2 -19 5 -12 2 6 2 18 0 25 -3 6 -5 1 -5 -13z"/>
<path d="M4870 1678 c0 -15 5 -30 10 -33 13 -8 13 25 0 45 -8 12 -10 9 -10
-12z"/>
<path d="M4952 1675 c0 -16 2 -22 5 -12 2 9 2 23 0 30 -3 6 -5 -1 -5 -18z"/>
<path d="M3570 1670 c-36 -27 -17 -41 43 -31 11 2 8 21 -6 36 -11 11 -17 10
-37 -5z m17 -13 c0 -8 -6 -14 -14 -14 -17 0 -17 14 0 20 6 3 12 6 13 6 0 1 1
-5 1 -12z"/>
<path d="M5011 1674 c0 -11 3 -14 6 -6 3 7 2 16 -1 19 -3 4 -6 -2 -5 -13z"/>
<path d="M4976 1655 c4 -8 8 -15 10 -15 2 0 4 7 4 15 0 8 -4 15 -10 15 -5 0
-7 -7 -4 -15z"/>
<path d="M5066 1645 c-3 -8 -1 -15 3 -15 5 0 11 7 15 15 3 8 1 15 -3 15 -5 0
-11 -7 -15 -15z"/>
<path d="M5078 1583 l-27 -58 21 -16 c21 -16 21 -17 5 -100 -10 -46 -17 -87
-17 -91 0 -5 33 -8 74 -8 l75 0 12 76 c14 88 29 81 29 -13 l0 -63 105 0 105 0
0 161 0 160 -72 -8 c-99 -11 -269 -7 -278 7 -3 6 -18 -16 -32 -47z"/>
<path d="M5849 1623 c-13 -16 -12 -17 4 -4 16 13 21 21 13 21 -2 0 -10 -8 -17
-17z"/>
<path d="M4882 1610 c0 -8 4 -26 8 -40 6 -20 8 -21 8 -5 0 11 -3 29 -8 40 -5
12 -8 14 -8 5z"/>
<path d="M5038 1574 c-9 -26 -13 -42 -8 -38 13 14 40 84 32 84 -4 0 -15 -21
-24 -46z"/>
<path d="M4966 1595 c-3 -8 -1 -15 4 -15 6 0 10 7 10 15 0 8 -2 15 -4 15 -2 0
-6 -7 -10 -15z"/>
<path d="M4987 1561 c-4 -17 -3 -21 5 -13 5 5 8 16 6 23 -3 8 -7 3 -11 -10z"/>
<path d="M4921 1544 c0 -11 3 -14 6 -6 3 7 2 16 -1 19 -3 4 -6 -2 -5 -13z"/>
<path d="M3540 1480 c0 -5 5 -10 10 -10 6 0 10 5 10 10 0 6 -4 10 -10 10 -5 0
-10 -4 -10 -10z"/>
<path d="M5578 1483 c6 -2 18 -2 25 0 6 3 1 5 -13 5 -14 0 -19 -2 -12 -5z"/>
<path d="M5658 1473 c7 -3 16 -2 19 1 4 3 -2 6 -13 5 -11 0 -14 -3 -6 -6z"/>
<path d="M5526 1409 c-10 -104 -12 -101 37 -97 23 2 46 8 50 13 6 6 10 6 14
-2 8 -22 42 -15 47 10 12 56 16 117 9 117 -4 1 -32 3 -62 6 -39 4 -56 2 -62
-8 -7 -10 -9 -9 -9 5 0 9 -4 17 -9 17 -4 0 -11 -28 -15 -61z m58 15 c3 -8 2
-12 -4 -9 -6 3 -10 10 -10 16 0 14 7 11 14 -7z m-27 -16 c-3 -8 -6 -5 -6 6 -1
11 2 17 5 13 3 -3 4 -12 1 -19z"/>
<path d="M5855 1462 c-63 -9 -108 -27 -116 -46 -9 -20 -9 -20 -5 1 2 13 0 25
-4 28 -14 9 -31 -32 -26 -62 2 -16 5 -38 5 -50 1 -19 7 -23 31 -23 17 0 30 5
30 10 0 6 8 5 21 -2 17 -11 22 -10 30 5 6 9 21 28 35 42 20 20 24 34 22 63 -2
31 -6 37 -23 34z m-99 -90 c-11 -10 -15 4 -8 28 l7 25 3 -23 c2 -13 1 -26 -2
-30z m7 -29 c-7 -2 -19 -2 -25 0 -7 3 -2 5 12 5 14 0 19 -2 13 -5z"/>
<path d="M1600 940 l0 -250 49 0 c49 0 49 0 79 53 95 168 292 235 507 172 11
-3 4 2 -15 11 -86 40 -261 25 -355 -30 -54 -32 -118 -99 -147 -152 -22 -41
-25 -44 -65 -44 l-43 0 0 240 0 240 450 0 449 0 4 -112 3 -113 2 118 2 117
-460 0 -460 0 0 -250z"/>
<path d="M1672 1107 c-19 -22 -4 -27 90 -27 80 0 89 2 86 18 -3 14 -16 17 -84
20 -59 2 -84 -1 -92 -11z"/>
<path d="M2492 859 c-7 -50 -11 -94 -8 -96 6 -6 29 162 25 176 -3 7 -10 -29
-17 -80z"/>
<path d="M2306 881 c48 -28 154 -132 154 -152 0 -5 5 -9 10 -9 6 0 10 7 10 16
0 8 -4 13 -9 10 -4 -3 -22 14 -40 39 -29 41 -140 125 -165 125 -6 0 12 -13 40
-29z"/>
<path d="M1979 881 c-105 -34 -198 -124 -229 -223 -8 -27 -17 -38 -31 -38 -15
0 -19 -7 -19 -34 0 -34 1 -35 42 -38 41 -3 42 -4 54 -50 36 -144 145 -231 289
-231 143 0 259 91 290 227 l12 51 41 0 c42 0 42 0 42 38 0 31 -4 37 -20 37
-11 0 -23 8 -26 18 -15 48 -47 106 -81 143 -95 105 -231 143 -364 100z m321
-151 c6 -11 8 -20 6 -20 -3 0 -10 9 -16 20 -6 11 -8 20 -6 20 3 0 10 -9 16
-20z m-170 -20 c20 -5 51 -25 69 -44 59 -61 54 -166 -11 -221 -148 -125 -345
74 -216 220 42 48 94 63 158 45z m220 -80 c0 -11 -5 -20 -11 -20 -6 0 -8 9 -4
20 3 11 2 20 -3 20 -5 0 -12 10 -15 21 l-6 21 20 -20 c10 -12 19 -30 19 -42z
m5 -40 c3 -5 1 -10 -4 -10 -6 0 -11 5 -11 10 0 6 2 10 4 10 3 0 8 -4 11 -10z
m0 -66 c-3 -25 -10 -55 -17 -67 -7 -12 -11 -25 -10 -29 1 -3 -5 -12 -13 -18
-21 -17 -19 -1 5 38 11 18 18 37 15 43 -4 5 -2 9 2 9 5 0 8 16 8 35 -1 19 2
35 6 35 5 0 6 -20 4 -46z m-65 -149 c-7 -8 -17 -15 -23 -15 -6 0 -2 7 9 15 25
19 30 19 14 0z m-30 -29 c0 -2 -7 -7 -16 -10 -8 -3 -12 -2 -9 4 6 10 25 14 25
6z"/>
<path d="M6104 608 l-19 -23 23 19 c12 11 22 21 22 23 0 8 -8 2 -26 -19z"/>
<path d="M2754 582 c-97 -52 -97 -35 -4 -171 46 -66 84 -121 86 -121 2 0 11
14 19 31 18 33 14 68 -12 119 -17 36 -10 86 17 102 16 10 14 14 -15 40 -18 15
-34 28 -36 28 -2 0 -27 -13 -55 -28z"/>
<path d="M5971 594 c0 -11 3 -14 6 -6 3 7 2 16 -1 19 -3 4 -6 -2 -5 -13z"/>
<path d="M6003 563 c9 -2 23 -2 30 0 6 3 -1 5 -18 5 -16 0 -22 -2 -12 -5z"/>
<path d="M5862 485 c0 -16 2 -22 5 -12 2 9 2 23 0 30 -3 6 -5 -1 -5 -18z"/>
<path d="M3490 453 c0 -6 -6 -18 -13 -25 -10 -10 -47 -99 -47 -114 0 -2 188
-65 268 -89 7 -3 12 5 12 21 0 26 -32 62 -100 113 -28 21 -31 29 -28 62 l3 37
-47 4 c-32 2 -48 -1 -48 -9z"/>
<path d="M5886 372 l-15 -28 32 5 c26 4 28 6 10 9 -19 3 -21 7 -13 23 6 10 8
19 6 19 -3 0 -12 -13 -20 -28z"/>
</g>
</svg>
